<svg width="138" height="45" viewBox="0 0 138 45" fill="none" xmlns="http://www.w3.org/2000/svg">
<path d="M137.171 -0.000164644C138.804 1.58818 137.431 2.70848 137.772 4.13879C136.538 4.53989 135.81 5.35429 134.66 5.63182C134.295 5.65409 133.956 4.99364 133.62 5.10303C133.143 5.16177 132.723 5.77967 132.218 5.75129C130.619 6.17467 129.159 6.26379 127.727 6.05509C125.485 7.55421 123.94 7.38198 121.894 8.33614C119.365 7.80935 115.638 10.0803 112.942 9.80068C106.492 12.4748 110.054 11.2208 103.602 13.125C102.424 13.3154 101.078 14.1379 99.9281 14.4154C97.7397 14.934 96.0022 16.0766 93.2508 16.0077C89.9698 17.3629 87.7783 16.7267 84.5822 18.3434C83.3732 17.6768 81.7196 18.6958 80.4571 19.0098C79.0824 19.3602 77.259 19.8566 75.8843 20.207C75.6599 20.2799 75.2101 20.0409 74.6774 20.3103C74.3408 20.4197 74.0891 20.7904 73.612 20.8492C72.9105 20.9808 72.4324 20.6547 71.7309 20.7863C69.9913 21.1591 68.7037 22.5407 67.1581 21.9836C60.5688 24.9919 64.437 22.7716 57.9872 25.4456C57.5636 24.5238 56.3882 25.869 55.2662 26.2337C54.7052 26.416 52.8251 26.7381 51.1138 27.1979C50.4406 27.4167 49.909 28.0711 49.2075 28.2027C48.9831 28.2757 47.859 27.8704 47.7752 27.994C46.5127 28.308 45.4767 29.3189 44.2425 29.72C43.0922 29.9976 41.9975 30.0644 40.735 30.3784C40.0619 30.5972 39.3058 31.3244 38.6882 31.3325C38.6043 31.4561 37.7886 30.8544 37.648 30.8038C36.5544 31.2555 36.5009 32.236 34.4814 32.8924C34.5936 32.8559 33.9476 32.7769 33.6949 32.7627C32.6851 33.0909 32.3202 33.1132 31.451 33.492C25.6754 36.3322 21.4948 37.2093 17.9663 40.475C13.7605 42.4198 10.4743 41.8505 5.84902 44.4132C4.83714 43.9715 3.71308 43.5663 2.86792 42.4925C1.57712 42.7194 0.481355 42.4013 4.74884e-05 40.9204C2.18211 38.0922 6.25163 37.6365 9.78637 36.6803C13.6294 35.5277 17.0792 34.3102 20.81 33.194C22.8579 32.6247 22.9952 31.5206 24.6499 30.8865C25.3545 31.9096 27.8449 28.885 28.6617 29.8716C31.2402 28.2631 34.3544 27.5399 37.1594 26.6283C44.9576 24.2865 53.6534 21.653 61.956 18.9547C64.6771 18.1667 63.078 18.5901 65.6869 17.8385C68.5201 17.014 66.4995 17.2855 69.1367 16.621C69.3611 16.5481 69.8109 16.7871 70.3436 16.5177C71.6616 15.993 72.6452 16.3476 74.3837 15.5899C77.1876 14.2934 81.8475 14.1274 85.1285 12.7721C87.1512 13.2705 90.0389 11.8504 92.6478 11.0989C102.218 10.0112 103.081 7.32279 112.874 5.3923C118.342 3.13353 122.386 3.74544 127.938 0.978159C128.051 1.32662 128.416 1.30434 128.724 1.10783C131.36 0.0584677 132.993 1.64682 135.657 0.684562C136.106 0.538708 136.639 0.26927 137.171 -0.000164644Z" fill="#00797C"/>
</svg>
