<svg width="12" height="19" viewBox="0 0 12 19" fill="none" xmlns="http://www.w3.org/2000/svg">
<path d="M3.26174 0.5H8.53853C9.3677 0.5 9.78228 0.5 10.0399 0.763603C10.5202 1.25516 10.5202 3.34483 10.0399 3.83639C9.78228 4.09999 9.3677 4.09999 8.53853 4.09999H3.26174C2.43258 4.09999 2.01799 4.09999 1.7604 3.83639C1.28006 3.34483 1.28006 1.25516 1.7604 0.763603C2.01799 0.5 2.43258 0.5 3.26174 0.5Z" stroke="currentColor"/>
<path d="M2.30007 4.1001C2.4485 4.39697 2.52273 4.54543 2.57552 4.69023C2.85096 5.44573 2.77531 6.28468 2.36917 6.97872C2.29133 7.11175 2.19175 7.24452 1.99259 7.51006L1.6295 7.99418C1.22444 8.53426 1.02191 8.8043 0.875136 9.10015C0.726867 9.39901 0.620862 9.71703 0.560161 10.0451C0.500071 10.3698 0.500071 10.7074 0.500071 11.3825V13.1001C0.500071 15.6457 0.500071 16.9184 1.29088 17.7093C2.08169 18.5001 3.35448 18.5001 5.90006 18.5001C8.44564 18.5001 9.71843 18.5001 10.5092 17.7093C11.3 16.9184 11.3 15.6457 11.3 13.1001V11.3825C11.3 10.7074 11.3 10.3698 11.24 10.0451C11.1793 9.71703 11.0733 9.39901 10.925 9.10015C10.7782 8.8043 10.5757 8.53426 10.1706 7.99418L9.80753 7.51006C9.60837 7.24452 9.50879 7.11175 9.43095 6.97872C9.0248 6.28468 8.94916 5.44573 9.2246 4.69023C9.27739 4.54543 9.35161 4.39698 9.50005 4.1001" stroke="currentColor"/>
<path d="M5.90015 10.3999V14.8999M3.65016 12.6499L8.15015 12.6499" stroke="currentColor" stroke-linecap="round"/>
</svg>
